<?xml version="1.0" ?><svg viewBox="0 0 64 64" xmlns="http://www.w3.org/2000/svg"><path d="M17.792 15.63c.715-.17 3.576-1.197 7.526 1.505 3.95 2.702 4.12 6.19 4.29 6.532.17.342 1.465.41 1.636.034.17-.375-.102-2.325-.715-3.693-.614-1.368-2.964-4.378-6.812-5.95-3.848-1.574-7.17-.014-7.288.17-.375.582.647 1.574 1.362 1.403zm15.155 3.9c-.306.102-.357 3.775-.17 4.07.238.375.715.273.954.136.24-.137-.033-4.07-.067-4.24-.035-.172-.41-.07-.716.033zM17.11 33.62c2.76-3.42 6.642-4.173 6.982-4.207.34-.034-.096-1.026-.477-1.026-.51 0-2.282.068-4.46 1.197-2.18 1.13-5.893 4.96-7.29 8.208-1.395 3.25-1.225 8.96-.884 9.576.342.616 2.18.24 2.317-.034.136-.274 0-.58.102-3.557.1-2.975.952-6.737 3.71-10.157zm17.335-9.166c.102.205.92.58 1.192.547.272-.033.545-1.025 1.09-2.462.545-1.436 2.01-3.078 4.495-5.78 2.486-2.702 7.9-3.557 8.037-3.694.135-.137.34-.958.033-1.094s-5.687.82-9.06 3.625c-3.37 2.805-6.006 8.42-5.788 8.86zm6.198 5.028c.17-.103 1.43-1.676 3.78-3.728 2.35-2.052 5.483-2.84 8.275-1.95 2.792.89 3.542 3.49 3.746 3.73.204.238.885-.035 1.056-.48.17-.445.102-1.13-1.737-3.25-1.84-2.12-5.108-2.427-8.582-.99-3.473 1.435-7.444 5.814-7.457 5.916-.067.512.75.854.92.752zM51.37 17.648c.58-.376 4.325-2.497 4.597-2.463.272.034 3.133 4.138 3.337 4.446.204.31.92.48 1.328-.033.41-.513-.545-4.89-.477-5.096.068-.204 1.362-2.085 2.043-2.564.68-.48.954-1.23.715-1.608-.238-.376-3.474-.855-3.814-1.026-.34-.17-.376-2.086-.58-2.907-.204-.82-.783-.718-1.328-.41s-2.452 2.94-3.03 3.215c-.58.274-2.993-.38-3.372.068-.783.923 1.703 3.523 1.737 3.933.034.41-2.043 3.182-2.316 3.66-.27.48.582 1.164 1.16.788zm1.09-7.148c.136-.034 2.248-.103 2.248-.103s2.758-2.463 2.86-2.463c.103 0 .103 2.428.342 2.53.238.104 2.86.548 2.895.72.034.17-2.043 2.7-2.077 2.838-.034.137-.034 1.71-.204 1.71s-1.84-2.12-2.077-2.12-2.93 1.47-3.167 1.334c-.238-.137 1.192-1.847.988-2.19-.207-.34-1.808-2.256-1.808-2.256zM46.5 9.474c1.704-.17 2.283-1.71 1.738-2.976-.545-1.265-2.146-1.7-3.167-.752-2.213 2.052-.272 3.9 1.43 3.728zm-.068-2.907c.578.04 1.09 1.094.715 1.573-.375.48-1.328.41-1.77-.068s.102-1.574 1.055-1.505zM44.934 19.29c.204-.24-.34-1.06-.68-1.265-.34-.205-2.42.58-3.985 2.326-1.568 1.745-3.2 4.52-3.134 4.926.034.205 1.328.718 1.464.718.136 0 .953-1.23 2.145-3.112 1.192-1.882 3.985-3.353 4.19-3.592zm-15.53-7.32l3.066 4.344c.17.24 1.498.342 1.84.205.34-.138 2.315-5.2 2.587-5.336.272-.137 3.37-.787 3.678-.82s.58-.753.58-1.164c0-.41-3.917-3.42-4.054-3.557-.135-.137.24-3.83.307-4.72.07-.89-.51-.923-.85-.923s-4.632 4.65-4.94 4.65c-.305 0-3.575-2.29-4.018-2.564-.444-.274-.886.24-.92.48-.034.238 1.022 5.916 1.056 6.053.034.136-3.415 2.412-3.1 2.94.308.513 4.77.41 4.77.41zm-.033-3.317c-.1-.24-1.157-3.796-.987-4.036 0 0 3.065 1.847 3.474 1.88.41.035 3.916-3.83 4.087-3.727.17.103-.34 3.25-.034 3.66.306.41 2.793 2.53 2.69 2.702-.102.17-2.724.684-2.93.958-.203.274-1.872 4.822-2.11 4.788-.238-.034-2.656-4.07-3.065-4.207-.41-.136-3.27-.102-3.27-.102s2.248-1.676 2.146-1.915zm-1.19 19.22c.1-.307-.478-1.572-2.044-3.59-1.567-2.018-4.453-3.8-5.074-3.59-.51.17-.715.99-.51 1.196.203.204 2.28 1.025 3.847 2.393 1.566 1.368 2.587 3.386 2.86 3.796.272.41.817.102.92-.206zm8.48 6.02c-.17-.136-1.942-5.882-2.555-5.916-.613-.034-4.018 5.37-4.053 5.472 0 0-4.563-.65-4.938.512-.375 1.163 2.52 5.028 2.52 5.267 0 .238-1.6 4-1.703 4.41-.1.41-.067 1.13.41 1.403.477.274 5.347-3.25 5.79-3.215.442.034 5.96 3.454 6.47 3.112.51-.342-.783-5.062-.715-5.2.068-.136 3.542-2.598 3.508-3.385-.035-.786-4.564-2.325-4.734-2.46zm-.035 5.2c-.034.41.817 4.035.477 4.035-.34 0-4.53-3.01-4.768-2.84-.238.172-4.393 2.566-4.597 2.43-.204-.138 1.703-3.592 1.498-3.9-.204-.308-3.167-3.762-2.895-3.933.365-.23 4.257.205 4.666-.068.41-.274 2.588-4.104 2.963-3.967.374.137 1.157 3.694 1.43 3.9.27.204 4.086 1.606 4.154 1.777.067.17-2.895 2.155-2.93 2.565zm23.02-10.124c-1.702.75-1.872 3.522-.918 4.24.954.718 3.474 1.13 4.155-1.026.68-2.155-1.855-3.826-3.236-3.215zm.035 3.316c-.715-.89 0-1.847.647-2.052.552-.175 1.328.855 1.396 1.368.068.513-1.328 1.573-2.043.684zm-1.737 8.482c-.306-.205-.553-3.45-.783-3.523-.988-.308-4.155 1.95-4.36 1.984-.203.033-1.055-.48-2.69-.753-1.634-.274-2.826.24-2.86.376-.034.137 3.133 4.788 3.167 5.062.034.274-3.167 3.625-3.37 4.002-.205.376.203 1.13.442 1.265s5.175-.89 5.584-.855c.41.034 2.384 4.31 2.486 4.446.102.137.885.41 1.192.205.306-.205.954-5.712 1.09-5.985.136-.274 2.214-.992 2.895-1.3.68-.308 1.566-.82 1.464-1.47-.102-.65-3.95-3.25-4.257-3.455zm-1.67 5.678c0 .17-.17 3.454-.476 3.454s-1.873-3.18-2.077-3.18c-.204 0-3.916.717-4.12.512-.205-.205 2.655-3.147 2.485-3.386-.17-.24-2.793-3.694-2.69-3.933.08-.19 3.474 1.06 3.78.958.306-.102 2.827-1.846 3.1-1.71.27.138.305 2.293.544 2.532.237.24 3.268 2.223 3.234 2.497-.033.272-3.78 2.085-3.78 2.256zm-4.528-14.468c.41.65 2.486 1.13 2.316-.41-.17-1.54-2.45-3.283-6.06-3.112-3.61.17-7.342 4.03-7.425 4.31-.272.922 1.294.854 1.77.717s2.078-2.052 4.632-3.044c2.555-.993 4.36.89 4.768 1.538zM19.36 26.643c-.273-1.915-2.917-2.234-3.815-1.13-1.362 1.677.17 2.84 1.26 3.182 1.09.342 2.826-.137 2.554-2.052zm-2.896-.205c.32-.393 1.226-.445 1.532 0 .306.445-.102 1.23-.783 1.094-.68-.137-1.056-.718-.75-1.094zm3.848 13.612c-.92 1.23-.715 3.523 1.84 3.694 2.553.17 3.2-2.497 2.35-3.728-.853-1.232-3.134-1.38-4.19.034zm2.077 2.497c-1.26-.068-1.67-1.163-.546-1.88.636-.407 1.192-.138 1.498.307.307.444.307 1.64-.953 1.573zM9.89 24.044c.103-.068 2.93.24 3.78.24s1.465-.377 1.465-.856c0-.48-2.724-3.044-2.86-3.283-.137-.24 2.213-4.89 1.702-5.13-.51-.24-4.053 1.06-4.19 1.06s-2.958-3.446-3.336-3.49c-.305-.033-.68.24-.816.548-.136.308-.715 3.933-.817 4.173-.102.24-3.405 2.6-3.61 2.84-.204.238-.272 1.025-.136 1.47.137.445 4.496 1.607 4.598 1.676.102.068.068 3.49.136 4.207.068.717.613 1.264 1.056 1.162.443-.104 2.93-4.55 3.03-4.618zM2.706 20.59c-.15-.302 3.235-2.087 3.235-2.19 0-.103.647-3.25.885-3.25s2.145 2.36 2.384 2.395c.237.034 2.417-.65 2.655-.513s-1.532 3.078-1.43 3.25c.102.17 2.384 2.222 2.214 2.393-.17.17-3.407-.17-3.543-.103-.136.068-1.67 3.215-1.907 3.147-.238-.07-.306-3.148-.477-3.387-.17-.24-3.95-1.607-4.018-1.744zm12.703-9.406c1.226-.513 2.18-3.112.647-4.24-1.532-1.13-4.3.642-4.36 1.743-.135 2.565 2.487 3.01 3.713 2.497zm-1.77-3.318c.556-.258 1.94-.24 1.94 1.06s-.885 1.436-1.873 1.06c-.987-.375-.51-1.914-.068-2.12zm1.838 45.9c-.238-.172-.1-4.08-.58-4.31-.782-.376-3.54 2.976-3.983 2.976s-2.827-1.13-3.2-1.163c-.376-.035-1.26.58-1.363 1.264-.102.684 1.975 4.173 2.248 4.515.272.34-1.635 2.975-1.873 3.624-.238.65.41 1.094.85.924.444-.17 3.577-1.78 3.78-1.78.205 0 1.806 2.395 2.76 3.25.953.855 1.36 1.163 1.77.752.41-.41.102-4.446.272-4.617.17-.17 2.86-.787 3.474-1.197.614-.41.784-.855.41-1.436-.375-.582-4.325-2.634-4.564-2.805zm-.68 4.137c-.137.24-.07 3.523-.24 3.523-.17 0-2.008-2.907-2.315-2.907-.305 0-2.79.65-2.894.58-.102-.068 1.09-2.12.953-2.326-.137-.205-2.317-3.66-2.35-3.967-.04-.366 3.098 1.573 3.54 1.3.444-.274 2.18-2.292 2.453-2.155s-.136 2.497.34 2.873c.478.376 3.85 2.19 3.85 2.292 0 .102-3.202.547-3.338.786zM6.52 18.777c-.136-.034-2.282 1.334-2.282 1.334-.204.24.41.548.75.617.34.068 1.634-.787 1.804-.992.17-.206-.136-.924-.272-.958zm27.312-6.636c.272-.444-1.51-2.222-2.043-2.222-.205 0-.614.342-.648.58-.034.24 1.566 2.395 1.703 2.498.136.103.715-.41.987-.855zM51.37 41.453c.068.205.783 1.54 1.09 1.676.306.137.58-.068.613-.274.034-.205-.988-1.505-.988-1.505s-.747.005-.715.102zm-19.31-6.91c-.34 0-.748 1.027-.953 1.164-.204.137-1.733-.265-1.873-.068-.17.24-.17.89-.102 1.06.068.17 1.94.82 2.622.82.68 0 1.192-2.53 1.192-2.735 0-.205-.544-.24-.885-.24z"/></svg>