<!-- By https://www.iconfinder.com/thiagopontes -->
<svg xmlns="http://www.w3.org/2000/svg" enable-background="new 0 0 512 512" viewBox="0 0 512 512">
  <circle cx="256" cy="256" r="253.44" fill="#adb5bd"/>
  <circle cx="256" cy="213.43" r="73.511" fill="#fff"/>
  <path fill="#fff" d="M184.69 286.819c.05.049.089.099.139.148-.05.029-.089.049-.139.079-.049-.05-.089-.099-.139-.149.05-.018.09-.048.139-.078zM327.478 286.859c-.049.059-.109.129-.168.188-.059-.04-.119-.07-.178-.099.059-.059.119-.129.178-.188.059.029.109.069.168.099z"/>
  <path fill="#fff" d="M360.802 296.893v74.185h-209.88v-74.185c0-19.173 15.543-34.715 34.715-34.715h4.122c15.018 20.79 39.095 33.373 66.241 33.373s51.223-12.583 66.241-33.373h3.845c19.173 0 34.716 15.542 34.716 34.715z"/>
</svg>
